:SAMPLES-PER-SECOND 30
:FULLY-SPECIFIED
:DEGREES
201
root  34.84592288 36.49692385 -14.9767748 9.005986214 -7.095205784 4.460755348
lowerback  -6.971561909 -1.650184989 -1.31013751
upperback  -4.139695644 -1.63973999 -4.157306194
thorax  -0.4506689906 -0.6295611858 -3.682189941
lowerneck  1.573029995 -19.5435009 -13.14000034
upperneck  7.63778019 -27.45750237 16.15810013
head  6.119319916 -13.23620033 4.749609947
lclavicle  0 -4.497500157e-015 -2.743230041e-014
lhumerus  -49.76340103 29.72640038 60.54460144
lradius  -2.057401616e-006 -6.507048965e-006 29.96139908
lwrist  4.824992743e-007 -3.790274832e-007 -29.67900085
lhand  -4.44407391e-031 -37.38539886 -10.50319958
lfingers  90 7.125020027 -90
lthumb  95.00541274 -25.32483892 101.5716485
rclavicle  0 -4.497500157e-015 -2.743230041e-014
rhumerus  -19.56389999 -39.50630188 7.168856144
rradius  -5.16745672e-007 2.214343908e-008 41.28030014
rwrist  -0.0001011603963 -0.001600692281 -165.3639984
rhand  -1.771241604e-031 4.589379787 -7.989200115
rfingers  -90 -7.125020027 -90
rthumb  -85.26126953 -8.150156773 -59.68400277
rfemur  -14.22680187 16.42278671 11.79043293
rtibia  -1.884952307 -1.995296717 22.41499901
rfoot  -0.2347516418 -23.16233063 -34.83327866
rtoes  3.835952967 19.64349068 -101.2799239
lfemur  -9.476036072 -17.31215477 -21.18718147
ltibia  2.397363424 -2.1589396 15.84884071
lfoot  1.46320951 -21.96373367 38.94846344
ltoes  -8.656471972 -18.09912799 -116.107789
202
root  34.84546331 36.49383305 -14.97736803 8.991914749 -7.072173595 4.460744381
lowerback  -6.974599361 -1.653764725 -1.310619473
upperback  -4.1390028 -1.635331511 -4.157895088
thorax  -0.4507416487 -0.6292212009 -3.678179979
lowerneck  1.551929951 -19.54269981 -13.17210007
upperneck  7.711559772 -27.46120071 16.1303997
head  6.14662981 -13.23620033 4.739520073
lclavicle  0 -4.497500157e-015 -2.743230041e-014
lhumerus  -49.72859955 29.71940041 60.59930038
lradius  -2.057401616e-006 -6.507048965e-006 29.96970177
lwrist  4.824992743e-007 -3.790274832e-007 -29.60230064
lhand  -4.445230289e-031 -37.4048996 -10.54539967
lfingers  90 7.125020027 -90
lthumb  95.02386042 -25.365418 101.5964714
rclavicle  0 -4.497500157e-015 -2.743230041e-014
rhumerus  -20.14290047 -39.90269852 7.279218197
rradius  -5.16745672e-007 2.214343908e-008 41.94820023
rwrist  -0.0001011603963 -0.001600692281 -165.5429993
rhand  -1.771117769e-031 4.539199829 -7.899020195
rfingers  -90 -7.125020027 -90
rthumb  -85.22658851 -8.224488045 -59.72621382
rfemur  -14.20310974 16.42185402 11.79398346
rtibia  -1.879404426 -1.983093858 22.40876198
rfoot  -0.2409898043 -23.14407158 -34.87226486
rtoes  3.848701829 19.64109169 -101.3178503
lfemur  -9.472361565 -17.302742 -21.17916298
ltibia  2.389848948 -2.13937211 15.85083771
lfoot  1.459595799 -22.00770569 38.93481064
ltoes  -8.680535279 -18.08789938 -116.1852703
203
root  34.84529811 36.49110268 -14.97798379 8.981384277 -7.05446291 4.452737331
lowerback  -6.963230133 -1.659191012 -1.318409801
upperback  -4.138419151 -1.633275151 -4.158627987
thorax  -0.4518427253 -0.6291004419 -3.664969921
lowerneck  1.540060043 -19.53510094 -13.17959976
upperneck  7.728489876 -27.45019913 16.11100006
head  6.150330067 -13.23120022 4.734819889
lclavicle  0 -4.497500157e-015 -2.743230041e-014
lhumerus  -49.71889877 29.77400017 60.61259842
lradius  -2.057401616e-006 -6.507048965e-006 29.99480247
lwrist  4.824992743e-007 -3.790274832e-007 -29.61680031
lhand  -4.444791312e-031 -37.39749908 -10.5717001
lfingers  90 7.125020027 -90
lthumb  95.02628886 -25.39151039 101.591122
rclavicle  0 -4.497500157e-015 -2.743230041e-014
rhumerus  -20.74040031 -40.15859985 7.379571438
rradius  -5.16745672e-007 2.214343908e-008 42.63439941
rwrist  -0.0001011603963 -0.001600692281 -165.6470032
rhand  -1.771176184e-031 4.562940121 -7.830850124
rfingers  -90 -7.125020027 -90
rthumb  -85.18647568 -8.285030863 -59.69816871
rfemur  -14.18912411 16.40936661 11.80436516
rtibia  -1.872080088 -1.977844357 22.41063499
rfoot  -0.2440191358 -23.15583992 -34.87330246
rtoes  3.848061017 19.64121247 -101.3159439
lfemur  -9.443709373 -17.29189682 -21.17383957
ltibia  2.395030499 -2.118356228 15.82151127
lfoot  1.447918177 -22.03127289 38.92037201
ltoes  -8.694221852 -18.08149539 -116.2293605
204
root  34.84525906 36.4931452 -14.97849442 8.977800369 -7.037830353 4.44462204
lowerback  -6.940544128 -1.664360642 -1.327423096
upperback  -4.137940407 -1.635529995 -4.15918684
thorax  -0.4534492493 -0.629229486 -3.65737009
lowerneck  1.522009969 -19.51070023 -13.21570015
upperneck  7.775000095 -27.42320061 16.13549995
head  6.172689915 -13.21479988 4.745900154
lclavicle  0 -4.497500157e-015 -2.743230041e-014
lhumerus  -49.68170166 29.75169945 60.68880081
lradius  -2.057401616e-006 -6.507048965e-006 30.02619743
lwrist  4.824992743e-007 -3.790274832e-007 -29.57889938
lhand  -4.443759899e-031 -37.38010025 -10.67660046
lfingers  90 7.125020027 -90
lthumb  95.04148128 -25.49496238 101.5825369
rclavicle  0 -4.497500157e-015 -2.743230041e-014
rhumerus  -21.34329987 -40.38339615 7.402238369
rradius  -5.16745672e-007 2.214343908e-008 43.40679932
rwrist  -0.0001011603963 -0.001600692281 -165.8829956
rhand  -1.771144798e-031 4.550199986 -7.837039948
rfingers  -90 -7.125020027 -90
rthumb  -85.19252728 -8.278801078 -59.71107006
rfemur  -14.19665813 16.40578461 11.81511784
rtibia  -1.868730068 -1.95522809 22.4332695
rfoot  -0.2523651719 -23.13297653 -34.87985992
rtoes  3.864937867 19.63802448 -101.3661572
lfemur  -9.434041977 -17.34549141 -21.16088104
ltibia  2.389074326 -2.126724005 15.80708694
lfoot  1.442296386 -21.99453735 38.96522141
ltoes  -8.70148305 -18.0780927 -116.2527579
205
root  34.84447209 36.4929049 -14.978963 8.962712288 -7.003384113 4.424514771
lowerback  -6.934569836 -1.667170048 -1.361969471
upperback  -4.137562275 -1.647060037 -4.159249306
thorax  -0.4550384879 -0.6296388507 -3.637559891
lowerneck  1.513409972 -19.48880005 -13.23499966
upperneck  7.82818985 -27.39590073 16.1086998
head  6.185379982 -13.20119953 4.742099762
lclavicle  0 -4.497500157e-015 -2.743230041e-014
lhumerus  -49.65459824 29.72820091 60.74679947
lradius  -2.057401616e-006 -6.507048965e-006 30.04899979
lwrist  4.824992743e-007 -3.790274832e-007 -29.49690056
lhand  -4.443244412e-031 -37.37139893 -10.65170002
lfingers  90 7.125020027 -90
lthumb  95.03184661 -25.47081639 101.5708381
rclavicle  0 -4.497500157e-015 -2.743230041e-014
rhumerus  -21.98410034 -40.79339981 7.465479374
rradius  -5.16745672e-007 2.214343908e-008 44.16070175
rwrist  -0.0001011603963 -0.001600692281 -166.0820007
rhand  -1.771120469e-031 4.540299892 -7.838359833
rfingers  -90 -7.125020027 -90
rthumb  -85.19541795 -8.276999402 -59.72075502
rfemur  -14.176157 16.44486237 11.84086132
rtibia  -1.867285848 -1.895337701 22.43395615
rfoot  -0.2509914637 -23.0345192 -34.93243408
rtoes  3.858493733 19.63924348 -101.3469832
lfemur  -9.426556587 -17.31793976 -21.12789345
ltibia  2.36968708 -2.09899044 15.8132658
lfoot  1.429155588 -22.04704857 38.93265915
ltoes  -8.672365207 -18.09171615 -116.1589583
